<?xml version="1.0" encoding="utf-8"?>
<svg xmlns="http://www.w3.org/2000/svg" xmlns:svg="http://www.w3.org/2000/svg" version="1.1" viewBox="0 0 1400 340">
	<title>The titlepage for the Standard Ebooks edition of Ethan Frome, by Edith Wharton</title>
	<g aria-label="ETHAN FROME">
		<path d="M 373.62646,52.807016 H 329.46271 V 130 h 44.16375 v -15.4386 h -26.5731 V 99.029239 h 25.45029 V 83.590642 H 347.05336 V 68.245613 h 26.5731 z"/>
		<path d="m 383.87353,68.245613 h 18.33919 V 130 h 17.59064 V 68.245613 h 18.33918 V 52.807016 h -54.26901 z"/>
		<path d="m 467.06797,99.029239 h 24.88889 V 130 h 17.59065 V 52.807016 H 491.95686 V 83.590642 H 467.06797 V 52.807016 H 449.47733 V 130 h 17.59064 z"/>
		<path d="m 564.95395,52.807016 h -16.2807 L 517.51535,130 h 18.90059 l 5.7076,-15.4386 h 29.38012 L 577.21126,130 h 18.90059 z m 0.56141,46.31579 h -17.40351 l 8.60818,-22.45614 h 0.18714 z"/>
		<path d="m 621.62208,82.093566 h 0.18714 L 652.49928,130 h 17.59064 V 52.807016 h -17.59064 v 47.906434 h -0.18714 L 621.62208,52.807016 H 604.03144 V 130 h 17.59064 z"/>
		<path d="M 761.55044,52.807016 H 716.91886 V 130 H 734.5095 V 99.029239 h 24.98246 V 83.590642 H 734.5095 V 68.245613 h 27.04094 z"/>
		<path d="M 774.91593,52.807016 V 130 h 17.59064 V 99.497075 L 816.08552,130 h 22.36257 l -26.5731,-31.906433 c 9.4503,-2.994152 15.81287,-10.760234 15.81287,-22.362574 0,-15.157895 -10.8538,-22.923977 -25.16959,-22.923977 z m 17.59064,34.245615 V 66.842104 h 2.05848 c 6.64328,0 14.59649,0.467836 14.59649,10.105263 0,9.637428 -7.95321,10.105264 -14.59649,10.105264 z"/>
		<path d="m 843.5227,91.356724 c 0,22.549706 16.09357,40.046786 38.92397,40.046786 22.17544,0 38.83041,-17.49708 38.83041,-40.046786 0,-22.549708 -17.4035,-39.953217 -38.83041,-39.953217 -21.23976,0 -38.92397,17.403509 -38.92397,39.953217 z m 18.99415,0 c 0,-11.508772 6.36257,-23.017544 19.92982,-23.017544 13.66082,0 19.83626,11.508772 19.83626,23.017544 0,11.508776 -5.80117,23.017546 -19.83626,23.017546 -14.40935,0 -19.92982,-11.50877 -19.92982,-23.017546 z"/>
		<path d="m 997.85163,130 h 17.59067 l -6.924,-77.192984 H 989.80485 L 972.68204,97.345029 955.55923,52.807016 H 936.84578 L 929.9218,130 h 17.59065 l 3.64912,-45.754387 h 0.46784 l 15.81286,45.286547 h 10.47953 l 15.81287,-45.286547 h 0.46784 z"/>
		<path d="M 1071.6528,52.807016 H 1027.489 V 130 h 44.1638 v -15.4386 h -26.5731 V 99.029239 H 1070.53 V 83.590642 h -25.4503 V 68.245613 h 26.5731 z"/>
	</g>
	<g aria-label="EDITH WHARTON">
		<path d="M 400.86404,232.10526 H 367.74123 V 290 h 33.12281 v -11.57895 h -19.92983 v -11.64912 h 19.08772 v -11.57895 h -19.08772 v -11.50877 h 19.92983 z"/>
		<path d="M 413.44847,232.10526 V 290 h 16.77193 c 15.92982,0 29.19298,-12.07018 29.19298,-28.98246 0,-16.8421 -13.33333,-28.91228 -29.19298,-28.91228 z m 13.19298,46.10527 v -34.31579 h 2.03509 c 9.82456,0 16.49123,7.50877 16.49123,17.19298 -0.0702,9.68421 -6.73685,17.12281 -16.49123,17.12281 z"/>
		<path d="M 483.45066,232.10526 H 470.25768 V 290 h 13.19298 z"/>
		<path d="m 489.83772,243.68421 h 13.75439 V 290 h 13.19298 v -46.31579 h 13.75439 v -11.57895 h -40.70176 z"/>
		<path d="m 553.48356,266.77193 h 18.66667 V 290 h 13.19298 v -57.89474 h -13.19298 v 23.08772 H 553.48356 V 232.10526 H 540.29058 V 290 h 13.19298 z"/>
		<path d="m 661.32346,290 h 14.59649 l 16.49123,-57.89474 h -14.59649 l -9.89474,39.7193 h -0.35087 l -10.52632,-39.7193 h -9.96491 l -10.52632,39.7193 h -0.35088 l -9.89473,-39.7193 H 611.63925 L 628.13048,290 h 14.66667 l 9.26315,-32.49123 z"/>
		<path d="m 713.76866,266.77193 h 18.66666 V 290 h 13.19298 v -57.89474 h -13.19298 v 23.08772 H 713.76866 V 232.10526 H 700.57567 V 290 h 13.19299 z"/>
		<path d="M 788.4331,232.10526 H 776.22257 L 752.85415,290 h 14.17544 l 4.2807,-11.57895 h 22.03509 L 797.62608,290 h 14.17544 z m 0.42105,34.73685 H 775.80152 L 782.25766,250 h 0.14035 z"/>
		<path d="M 818.99123,232.10526 V 290 h 13.19298 V 267.12281 L 849.86842,290 h 16.77193 l -19.92982,-23.92982 c 7.08772,-2.24562 11.85965,-8.07018 11.85965,-16.77193 0,-11.36842 -8.14035,-17.19299 -18.87719,-17.19299 z m 13.19298,25.68421 v -15.15789 h 1.54386 c 4.98246,0 10.94737,0.35088 10.94737,7.57895 0,7.22807 -5.96491,7.57894 -10.94737,7.57894 z"/>
		<path d="M 867.90241,243.68421 H 881.6568 V 290 h 13.19298 v -46.31579 h 13.75438 v -11.57895 h -40.70175 z"/>
		<path d="m 913.56576,261.01754 c 0,16.91228 12.07018,30.03509 29.19298,30.03509 16.63158,0 29.12281,-13.12281 29.12281,-30.03509 0,-16.91228 -13.05263,-29.96491 -29.12281,-29.96491 -15.92982,0 -29.19298,13.05263 -29.19298,29.96491 z m 14.24561,0 c 0,-8.63157 4.77193,-17.26315 14.94737,-17.26315 10.24562,0 14.8772,8.63158 14.8772,17.26315 0,8.63158 -4.35088,17.26316 -14.8772,17.26316 -10.80702,0 -14.94737,-8.63158 -14.94737,-17.26316 z"/>
		<path d="m 995.89582,254.07018 h 0.14035 L 1019.0537,290 h 13.193 v -57.89474 h -13.193 v 35.92983 h -0.1403 L 995.89582,232.10526 H 982.70284 V 290 h 13.19298 z"/>
	</g>
</svg>
